# xmcd
#
# Track frame offsets:
#	150
#	10586
#	37804
#	53829
#	67440
#	84065
#	107768
#	121605
#	141534
#	158118
#	177919
#	187823
#	205603
#	223660
#
# Disc length: 3178 seconds
#
# Revision: 0
# Processed by: cddbd v1.5.2PL0 Copyright (c) Steve Scherf et al.
# Submitted via: EasyCDDAExtractor 10.0.2.1
#
DISCID=b50c680e
DTITLE=Normaal - De Blues eLPee
DYEAR=2009
DGENRE=Blues
TTITLE0=Rospelen
TTITLE1=Umdat D'r Van Die Leu Bunt
TTITLE2=Nachtvlinder
TTITLE3=Zei De Pröhs
TTITLE4=Høken Blues
TTITLE5=Fluitjen Van Een Cent
TTITLE6=Wat Duurt Dat Lang
TTITLE7=Een Betjen Keerl
TTITLE8=Kruuspunt
TTITLE9=Blues, Blief Moar Weg Bi-j Mien
TTITLE10=Dorpsstroat
TTITLE11=Kort-e-lene
TTITLE12=Enden Schieten
TTITLE13=Harm Van Bargs Willem
EXTD=
EXTT0=
EXTT1=
EXTT2=
EXTT3=
EXTT4=
EXTT5=
EXTT6=
EXTT7=
EXTT8=
EXTT9=
EXTT10=
EXTT11=
EXTT12=
EXTT13=
PLAYORDER=
